<?xml version="1.0" encoding="us-ascii" standalone="no"?><svg xmlns="http://www.w3.org/2000/svg" xmlns:xlink="http://www.w3.org/1999/xlink" contentStyleType="text/css" height="1381px" preserveAspectRatio="none" style="width:973px;height:1381px;background:#FFFFFF;" version="1.1" viewBox="0 0 973 1381" width="973px" zoomAndPan="magnify"><defs/><g><text fill="#000000" font-family="Verdana" font-size="18" font-weight="bold" lengthAdjust="spacing" textLength="259" x="352.775" y="33.0967">PMBOK&#21313;&#22823;&#30693;&#35782;&#22495;AI&#36171;&#33021;&#30697;&#38453;</text><!--cluster HighPriority--><g id="cluster_HighPriority"><rect fill="#F08080" height="920" rx="2.5" ry="2.5" style="stroke:#888888;stroke-width:1.0;" width="235" x="135.05" y="339.876"/><text fill="#000000" font-family="Verdana" font-size="12" font-weight="bold" lengthAdjust="spacing" textLength="154" x="175.55" y="353.9404">&#128308; &#39640;&#20248;&#20808;&#32423;&#39046;&#22495; (&#31435;&#21363;&#23454;&#26045;)</text></g><!--cluster Communication--><g id="cluster_Communication"><rect fill="#E0F2F1" height="261" rx="2.5" ry="2.5" style="stroke:#888888;stroke-width:1.0;" width="156" x="174.55" y="388.876"/><text fill="#000000" font-family="Verdana" font-size="12" font-weight="bold" lengthAdjust="spacing" textLength="89" x="208.05" y="402.9404">7. &#39033;&#30446;&#27807;&#36890;&#31649;&#29702;</text></g><!--cluster Risk--><g id="cluster_Risk"><rect fill="#FFF8E1" height="261" rx="2.5" ry="2.5" style="stroke:#888888;stroke-width:1.0;" width="156" x="174.55" y="673.876"/><text fill="#000000" font-family="Verdana" font-size="12" font-weight="bold" lengthAdjust="spacing" textLength="89" x="208.05" y="687.9404">8. &#39033;&#30446;&#39118;&#38505;&#31649;&#29702;</text></g><!--cluster Integration--><g id="cluster_Integration"><rect fill="#FFEBEE" height="261" rx="2.5" ry="2.5" style="stroke:#888888;stroke-width:1.0;" width="171" x="167.05" y="958.876"/><text fill="#000000" font-family="Verdana" font-size="12" font-weight="bold" lengthAdjust="spacing" textLength="89" x="208.05" y="972.9404">1. &#39033;&#30446;&#25972;&#21512;&#31649;&#29702;</text></g><!--cluster MidPriority--><g id="cluster_MidPriority"><rect fill="#FFFFE0" height="920" rx="2.5" ry="2.5" style="stroke:#888888;stroke-width:1.0;" width="227" x="466.55" y="339.876"/><text fill="#000000" font-family="Verdana" font-size="12" font-weight="bold" lengthAdjust="spacing" textLength="154" x="503.05" y="353.9404">&#128993; &#20013;&#20248;&#20808;&#32423;&#39046;&#22495; (&#36880;&#27493;&#25512;&#36827;)</text></g><!--cluster Scope--><g id="cluster_Scope"><rect fill="#F3E5F5" height="261" rx="2.5" ry="2.5" style="stroke:#888888;stroke-width:1.0;" width="163" x="498.55" y="388.876"/><text fill="#000000" font-family="Verdana" font-size="12" font-weight="bold" lengthAdjust="spacing" textLength="89" x="535.55" y="402.9404">2. &#39033;&#30446;&#33539;&#22260;&#31649;&#29702;</text></g><!--cluster Schedule--><g id="cluster_Schedule"><rect fill="#E8F5E8" height="261" rx="2.5" ry="2.5" style="stroke:#888888;stroke-width:1.0;" width="156" x="502.05" y="673.876"/><text fill="#000000" font-family="Verdana" font-size="12" font-weight="bold" lengthAdjust="spacing" textLength="89" x="535.55" y="687.9404">3. &#39033;&#30446;&#36827;&#24230;&#31649;&#29702;</text></g><!--cluster Cost--><g id="cluster_Cost"><rect fill="#FFF3E0" height="261" rx="2.5" ry="2.5" style="stroke:#888888;stroke-width:1.0;" width="156" x="502.05" y="958.876"/><text fill="#000000" font-family="Verdana" font-size="12" font-weight="bold" lengthAdjust="spacing" textLength="89" x="535.55" y="972.9404">4. &#39033;&#30446;&#25104;&#26412;&#31649;&#29702;</text></g><!--cluster LowPriority--><g id="cluster_LowPriority"><rect fill="#90EE90" height="1205" rx="2.5" ry="2.5" style="stroke:#888888;stroke-width:1.0;" width="234" x="733.55" y="54.876"/><text fill="#000000" font-family="Verdana" font-size="12" font-weight="bold" lengthAdjust="spacing" textLength="154" x="773.55" y="68.9404">&#128994; &#22522;&#30784;&#20248;&#21270;&#39046;&#22495; (&#25345;&#32493;&#23436;&#21892;)</text></g><!--cluster Quality--><g id="cluster_Quality"><rect fill="#E3F2FD" height="261" rx="2.5" ry="2.5" style="stroke:#888888;stroke-width:1.0;" width="156" x="772.55" y="103.876"/><text fill="#000000" font-family="Verdana" font-size="12" font-weight="bold" lengthAdjust="spacing" textLength="89" x="806.05" y="117.9404">5. &#39033;&#30446;&#36136;&#37327;&#31649;&#29702;</text></g><!--cluster Resource--><g id="cluster_Resource"><rect fill="#FCE4EC" height="261" rx="2.5" ry="2.5" style="stroke:#888888;stroke-width:1.0;" width="156" x="772.55" y="388.876"/><text fill="#000000" font-family="Verdana" font-size="12" font-weight="bold" lengthAdjust="spacing" textLength="89" x="806.05" y="402.9404">6. &#39033;&#30446;&#36164;&#28304;&#31649;&#29702;</text></g><!--cluster Procurement--><g id="cluster_Procurement"><rect fill="#F1F8E9" height="261" rx="2.5" ry="2.5" style="stroke:#888888;stroke-width:1.0;" width="170" x="765.55" y="673.876"/><text fill="#000000" font-family="Verdana" font-size="12" font-weight="bold" lengthAdjust="spacing" textLength="89" x="806.05" y="687.9404">9. &#39033;&#30446;&#37319;&#36141;&#31649;&#29702;</text></g><!--cluster Stakeholder--><g id="cluster_Stakeholder"><rect fill="#E8EAF6" height="261" rx="2.5" ry="2.5" style="stroke:#888888;stroke-width:1.0;" width="170" x="765.55" y="958.876"/><text fill="#000000" font-family="Verdana" font-size="12" font-weight="bold" lengthAdjust="spacing" textLength="110" x="795.55" y="972.9404">10. &#39033;&#30446;&#30456;&#20851;&#26041;&#31649;&#29702;</text></g><!--entity ??????--><g id="elem_&#27807;&#36890;&#35745;&#21010;&#21046;&#23450;"><rect fill="#FFFFFF" height="47.0146" rx="2.5" ry="2.5" style="stroke:#000000;stroke-width:1.0;" width="124" x="190.55" y="586.376"/><rect fill="#FFFFFF" height="10" style="stroke:#000000;stroke-width:1.0;" width="15" x="294.55" y="591.376"/><rect fill="#FFFFFF" height="2" style="stroke:#000000;stroke-width:1.0;" width="4" x="292.55" y="593.376"/><rect fill="#FFFFFF" height="2" style="stroke:#000000;stroke-width:1.0;" width="4" x="292.55" y="597.376"/><text fill="#000000" font-family="Verdana" font-size="14" lengthAdjust="spacing" textLength="84" x="205.55" y="620.4512">&#27807;&#36890;&#35745;&#21010;&#21046;&#23450;</text></g><!--entity ??????--><g id="elem_&#20250;&#35758;&#26234;&#33021;&#31649;&#29702;"><rect fill="#FFFFFF" height="47.0146" rx="2.5" ry="2.5" style="stroke:#000000;stroke-width:1.0;" width="124" x="190.55" y="504.376"/><rect fill="#FFFFFF" height="10" style="stroke:#000000;stroke-width:1.0;" width="15" x="294.55" y="509.376"/><rect fill="#FFFFFF" height="2" style="stroke:#000000;stroke-width:1.0;" width="4" x="292.55" y="511.376"/><rect fill="#FFFFFF" height="2" style="stroke:#000000;stroke-width:1.0;" width="4" x="292.55" y="515.376"/><text fill="#000000" font-family="Verdana" font-size="14" lengthAdjust="spacing" textLength="84" x="205.55" y="538.4512">&#20250;&#35758;&#26234;&#33021;&#31649;&#29702;</text></g><!--entity ??????--><g id="elem_&#25253;&#21578;&#26234;&#33021;&#29983;&#25104;"><rect fill="#FFFFFF" height="47.0146" rx="2.5" ry="2.5" style="stroke:#000000;stroke-width:1.0;" width="124" x="190.55" y="422.376"/><rect fill="#FFFFFF" height="10" style="stroke:#000000;stroke-width:1.0;" width="15" x="294.55" y="427.376"/><rect fill="#FFFFFF" height="2" style="stroke:#000000;stroke-width:1.0;" width="4" x="292.55" y="429.376"/><rect fill="#FFFFFF" height="2" style="stroke:#000000;stroke-width:1.0;" width="4" x="292.55" y="433.376"/><text fill="#000000" font-family="Verdana" font-size="14" lengthAdjust="spacing" textLength="84" x="205.55" y="456.4512">&#25253;&#21578;&#26234;&#33021;&#29983;&#25104;</text></g><!--entity ??????--><g id="elem_&#39118;&#38505;&#26234;&#33021;&#35782;&#21035;"><rect fill="#FFFFFF" height="47.0146" rx="2.5" ry="2.5" style="stroke:#000000;stroke-width:1.0;" width="124" x="190.55" y="871.376"/><rect fill="#FFFFFF" height="10" style="stroke:#000000;stroke-width:1.0;" width="15" x="294.55" y="876.376"/><rect fill="#FFFFFF" height="2" style="stroke:#000000;stroke-width:1.0;" width="4" x="292.55" y="878.376"/><rect fill="#FFFFFF" height="2" style="stroke:#000000;stroke-width:1.0;" width="4" x="292.55" y="882.376"/><text fill="#000000" font-family="Verdana" font-size="14" lengthAdjust="spacing" textLength="84" x="205.55" y="905.4512">&#39118;&#38505;&#26234;&#33021;&#35782;&#21035;</text></g><!--entity ??????--><g id="elem_&#39118;&#38505;&#27010;&#29575;&#39044;&#27979;"><rect fill="#FFFFFF" height="47.0146" rx="2.5" ry="2.5" style="stroke:#000000;stroke-width:1.0;" width="124" x="190.55" y="789.376"/><rect fill="#FFFFFF" height="10" style="stroke:#000000;stroke-width:1.0;" width="15" x="294.55" y="794.376"/><rect fill="#FFFFFF" height="2" style="stroke:#000000;stroke-width:1.0;" width="4" x="292.55" y="796.376"/><rect fill="#FFFFFF" height="2" style="stroke:#000000;stroke-width:1.0;" width="4" x="292.55" y="800.376"/><text fill="#000000" font-family="Verdana" font-size="14" lengthAdjust="spacing" textLength="84" x="205.55" y="823.4512">&#39118;&#38505;&#27010;&#29575;&#39044;&#27979;</text></g><!--entity ??????--><g id="elem_&#24212;&#23545;&#31574;&#30053;&#25512;&#33616;"><rect fill="#FFFFFF" height="47.0146" rx="2.5" ry="2.5" style="stroke:#000000;stroke-width:1.0;" width="124" x="190.55" y="707.376"/><rect fill="#FFFFFF" height="10" style="stroke:#000000;stroke-width:1.0;" width="15" x="294.55" y="712.376"/><rect fill="#FFFFFF" height="2" style="stroke:#000000;stroke-width:1.0;" width="4" x="292.55" y="714.376"/><rect fill="#FFFFFF" height="2" style="stroke:#000000;stroke-width:1.0;" width="4" x="292.55" y="718.376"/><text fill="#000000" font-family="Verdana" font-size="14" lengthAdjust="spacing" textLength="84" x="205.55" y="741.4512">&#24212;&#23545;&#31574;&#30053;&#25512;&#33616;</text></g><!--entity ????AI??--><g id="elem_&#39033;&#30446;&#31456;&#31243;AI&#29983;&#25104;"><rect fill="#FFFFFF" height="47.0146" rx="2.5" ry="2.5" style="stroke:#000000;stroke-width:1.0;" width="139" x="183.05" y="1156.376"/><rect fill="#FFFFFF" height="10" style="stroke:#000000;stroke-width:1.0;" width="15" x="302.05" y="1161.376"/><rect fill="#FFFFFF" height="2" style="stroke:#000000;stroke-width:1.0;" width="4" x="300.05" y="1163.376"/><rect fill="#FFFFFF" height="2" style="stroke:#000000;stroke-width:1.0;" width="4" x="300.05" y="1167.376"/><text fill="#000000" font-family="Verdana" font-size="14" lengthAdjust="spacing" textLength="99" x="198.05" y="1190.4512">&#39033;&#30446;&#31456;&#31243;AI&#29983;&#25104;</text></g><!--entity ??????--><g id="elem_&#35745;&#21010;&#26234;&#33021;&#25972;&#21512;"><rect fill="#FFFFFF" height="47.0146" rx="2.5" ry="2.5" style="stroke:#000000;stroke-width:1.0;" width="124" x="190.55" y="1074.376"/><rect fill="#FFFFFF" height="10" style="stroke:#000000;stroke-width:1.0;" width="15" x="294.55" y="1079.376"/><rect fill="#FFFFFF" height="2" style="stroke:#000000;stroke-width:1.0;" width="4" x="292.55" y="1081.376"/><rect fill="#FFFFFF" height="2" style="stroke:#000000;stroke-width:1.0;" width="4" x="292.55" y="1085.376"/><text fill="#000000" font-family="Verdana" font-size="14" lengthAdjust="spacing" textLength="84" x="205.55" y="1108.4512">&#35745;&#21010;&#26234;&#33021;&#25972;&#21512;</text></g><!--entity ??????--><g id="elem_&#21464;&#26356;&#24433;&#21709;&#20998;&#26512;"><rect fill="#FFFFFF" height="47.0146" rx="2.5" ry="2.5" style="stroke:#000000;stroke-width:1.0;" width="124" x="190.55" y="992.376"/><rect fill="#FFFFFF" height="10" style="stroke:#000000;stroke-width:1.0;" width="15" x="294.55" y="997.376"/><rect fill="#FFFFFF" height="2" style="stroke:#000000;stroke-width:1.0;" width="4" x="292.55" y="999.376"/><rect fill="#FFFFFF" height="2" style="stroke:#000000;stroke-width:1.0;" width="4" x="292.55" y="1003.376"/><text fill="#000000" font-family="Verdana" font-size="14" lengthAdjust="spacing" textLength="84" x="205.55" y="1026.4512">&#21464;&#26356;&#24433;&#21709;&#20998;&#26512;</text></g><!--entity ??????--><g id="elem_&#38656;&#27714;&#26234;&#33021;&#25910;&#38598;"><rect fill="#FFFFFF" height="47.0146" rx="2.5" ry="2.5" style="stroke:#000000;stroke-width:1.0;" width="124" x="518.05" y="586.376"/><rect fill="#FFFFFF" height="10" style="stroke:#000000;stroke-width:1.0;" width="15" x="622.05" y="591.376"/><rect fill="#FFFFFF" height="2" style="stroke:#000000;stroke-width:1.0;" width="4" x="620.05" y="593.376"/><rect fill="#FFFFFF" height="2" style="stroke:#000000;stroke-width:1.0;" width="4" x="620.05" y="597.376"/><text fill="#000000" font-family="Verdana" font-size="14" lengthAdjust="spacing" textLength="84" x="533.05" y="620.4512">&#38656;&#27714;&#26234;&#33021;&#25910;&#38598;</text></g><!--entity WBS????--><g id="elem_WBS&#26234;&#33021;&#29983;&#25104;"><rect fill="#FFFFFF" height="47.0146" rx="2.5" ry="2.5" style="stroke:#000000;stroke-width:1.0;" width="131" x="514.55" y="504.376"/><rect fill="#FFFFFF" height="10" style="stroke:#000000;stroke-width:1.0;" width="15" x="625.55" y="509.376"/><rect fill="#FFFFFF" height="2" style="stroke:#000000;stroke-width:1.0;" width="4" x="623.55" y="511.376"/><rect fill="#FFFFFF" height="2" style="stroke:#000000;stroke-width:1.0;" width="4" x="623.55" y="515.376"/><text fill="#000000" font-family="Verdana" font-size="14" lengthAdjust="spacing" textLength="91" x="529.55" y="538.4512">WBS&#26234;&#33021;&#29983;&#25104;</text></g><!--entity ??????--><g id="elem_&#33539;&#22260;&#21464;&#26356;&#30417;&#25511;"><rect fill="#FFFFFF" height="47.0146" rx="2.5" ry="2.5" style="stroke:#000000;stroke-width:1.0;" width="124" x="518.05" y="422.376"/><rect fill="#FFFFFF" height="10" style="stroke:#000000;stroke-width:1.0;" width="15" x="622.05" y="427.376"/><rect fill="#FFFFFF" height="2" style="stroke:#000000;stroke-width:1.0;" width="4" x="620.05" y="429.376"/><rect fill="#FFFFFF" height="2" style="stroke:#000000;stroke-width:1.0;" width="4" x="620.05" y="433.376"/><text fill="#000000" font-family="Verdana" font-size="14" lengthAdjust="spacing" textLength="84" x="533.05" y="456.4512">&#33539;&#22260;&#21464;&#26356;&#30417;&#25511;</text></g><!--entity ??????--><g id="elem_&#27963;&#21160;&#26234;&#33021;&#25490;&#24207;"><rect fill="#FFFFFF" height="47.0146" rx="2.5" ry="2.5" style="stroke:#000000;stroke-width:1.0;" width="124" x="518.05" y="871.376"/><rect fill="#FFFFFF" height="10" style="stroke:#000000;stroke-width:1.0;" width="15" x="622.05" y="876.376"/><rect fill="#FFFFFF" height="2" style="stroke:#000000;stroke-width:1.0;" width="4" x="620.05" y="878.376"/><rect fill="#FFFFFF" height="2" style="stroke:#000000;stroke-width:1.0;" width="4" x="620.05" y="882.376"/><text fill="#000000" font-family="Verdana" font-size="14" lengthAdjust="spacing" textLength="84" x="533.05" y="905.4512">&#27963;&#21160;&#26234;&#33021;&#25490;&#24207;</text></g><!--entity ??????--><g id="elem_&#24037;&#26399;&#26234;&#33021;&#20272;&#31639;"><rect fill="#FFFFFF" height="47.0146" rx="2.5" ry="2.5" style="stroke:#000000;stroke-width:1.0;" width="124" x="518.05" y="789.376"/><rect fill="#FFFFFF" height="10" style="stroke:#000000;stroke-width:1.0;" width="15" x="622.05" y="794.376"/><rect fill="#FFFFFF" height="2" style="stroke:#000000;stroke-width:1.0;" width="4" x="620.05" y="796.376"/><rect fill="#FFFFFF" height="2" style="stroke:#000000;stroke-width:1.0;" width="4" x="620.05" y="800.376"/><text fill="#000000" font-family="Verdana" font-size="14" lengthAdjust="spacing" textLength="84" x="533.05" y="823.4512">&#24037;&#26399;&#26234;&#33021;&#20272;&#31639;</text></g><!--entity ??????--><g id="elem_&#20851;&#38190;&#36335;&#24452;&#20248;&#21270;"><rect fill="#FFFFFF" height="47.0146" rx="2.5" ry="2.5" style="stroke:#000000;stroke-width:1.0;" width="124" x="518.05" y="707.376"/><rect fill="#FFFFFF" height="10" style="stroke:#000000;stroke-width:1.0;" width="15" x="622.05" y="712.376"/><rect fill="#FFFFFF" height="2" style="stroke:#000000;stroke-width:1.0;" width="4" x="620.05" y="714.376"/><rect fill="#FFFFFF" height="2" style="stroke:#000000;stroke-width:1.0;" width="4" x="620.05" y="718.376"/><text fill="#000000" font-family="Verdana" font-size="14" lengthAdjust="spacing" textLength="84" x="533.05" y="741.4512">&#20851;&#38190;&#36335;&#24452;&#20248;&#21270;</text></g><!--entity ??????--><g id="elem_&#25104;&#26412;&#26234;&#33021;&#20272;&#31639;"><rect fill="#FFFFFF" height="47.0146" rx="2.5" ry="2.5" style="stroke:#000000;stroke-width:1.0;" width="124" x="518.05" y="1156.376"/><rect fill="#FFFFFF" height="10" style="stroke:#000000;stroke-width:1.0;" width="15" x="622.05" y="1161.376"/><rect fill="#FFFFFF" height="2" style="stroke:#000000;stroke-width:1.0;" width="4" x="620.05" y="1163.376"/><rect fill="#FFFFFF" height="2" style="stroke:#000000;stroke-width:1.0;" width="4" x="620.05" y="1167.376"/><text fill="#000000" font-family="Verdana" font-size="14" lengthAdjust="spacing" textLength="84" x="533.05" y="1190.4512">&#25104;&#26412;&#26234;&#33021;&#20272;&#31639;</text></g><!--entity ??????--><g id="elem_&#39044;&#31639;&#23454;&#26102;&#30417;&#25511;"><rect fill="#FFFFFF" height="47.0146" rx="2.5" ry="2.5" style="stroke:#000000;stroke-width:1.0;" width="124" x="518.05" y="1074.376"/><rect fill="#FFFFFF" height="10" style="stroke:#000000;stroke-width:1.0;" width="15" x="622.05" y="1079.376"/><rect fill="#FFFFFF" height="2" style="stroke:#000000;stroke-width:1.0;" width="4" x="620.05" y="1081.376"/><rect fill="#FFFFFF" height="2" style="stroke:#000000;stroke-width:1.0;" width="4" x="620.05" y="1085.376"/><text fill="#000000" font-family="Verdana" font-size="14" lengthAdjust="spacing" textLength="84" x="533.05" y="1108.4512">&#39044;&#31639;&#23454;&#26102;&#30417;&#25511;</text></g><!--entity ??????--><g id="elem_&#25104;&#26412;&#20248;&#21270;&#24314;&#35758;"><rect fill="#FFFFFF" height="47.0146" rx="2.5" ry="2.5" style="stroke:#000000;stroke-width:1.0;" width="124" x="518.05" y="992.376"/><rect fill="#FFFFFF" height="10" style="stroke:#000000;stroke-width:1.0;" width="15" x="622.05" y="997.376"/><rect fill="#FFFFFF" height="2" style="stroke:#000000;stroke-width:1.0;" width="4" x="620.05" y="999.376"/><rect fill="#FFFFFF" height="2" style="stroke:#000000;stroke-width:1.0;" width="4" x="620.05" y="1003.376"/><text fill="#000000" font-family="Verdana" font-size="14" lengthAdjust="spacing" textLength="84" x="533.05" y="1026.4512">&#25104;&#26412;&#20248;&#21270;&#24314;&#35758;</text></g><!--entity ??????--><g id="elem_&#36136;&#37327;&#26631;&#20934;&#21046;&#23450;"><rect fill="#FFFFFF" height="47.0146" rx="2.5" ry="2.5" style="stroke:#000000;stroke-width:1.0;" width="124" x="788.55" y="301.376"/><rect fill="#FFFFFF" height="10" style="stroke:#000000;stroke-width:1.0;" width="15" x="892.55" y="306.376"/><rect fill="#FFFFFF" height="2" style="stroke:#000000;stroke-width:1.0;" width="4" x="890.55" y="308.376"/><rect fill="#FFFFFF" height="2" style="stroke:#000000;stroke-width:1.0;" width="4" x="890.55" y="312.376"/><text fill="#000000" font-family="Verdana" font-size="14" lengthAdjust="spacing" textLength="84" x="803.55" y="335.4512">&#36136;&#37327;&#26631;&#20934;&#21046;&#23450;</text></g><!--entity ??????--><g id="elem_&#36136;&#37327;&#26234;&#33021;&#26816;&#26597;"><rect fill="#FFFFFF" height="47.0146" rx="2.5" ry="2.5" style="stroke:#000000;stroke-width:1.0;" width="124" x="788.55" y="219.376"/><rect fill="#FFFFFF" height="10" style="stroke:#000000;stroke-width:1.0;" width="15" x="892.55" y="224.376"/><rect fill="#FFFFFF" height="2" style="stroke:#000000;stroke-width:1.0;" width="4" x="890.55" y="226.376"/><rect fill="#FFFFFF" height="2" style="stroke:#000000;stroke-width:1.0;" width="4" x="890.55" y="230.376"/><text fill="#000000" font-family="Verdana" font-size="14" lengthAdjust="spacing" textLength="84" x="803.55" y="253.4512">&#36136;&#37327;&#26234;&#33021;&#26816;&#26597;</text></g><!--entity ??????--><g id="elem_&#36136;&#37327;&#25913;&#36827;&#24314;&#35758;"><rect fill="#FFFFFF" height="47.0146" rx="2.5" ry="2.5" style="stroke:#000000;stroke-width:1.0;" width="124" x="788.55" y="137.376"/><rect fill="#FFFFFF" height="10" style="stroke:#000000;stroke-width:1.0;" width="15" x="892.55" y="142.376"/><rect fill="#FFFFFF" height="2" style="stroke:#000000;stroke-width:1.0;" width="4" x="890.55" y="144.376"/><rect fill="#FFFFFF" height="2" style="stroke:#000000;stroke-width:1.0;" width="4" x="890.55" y="148.376"/><text fill="#000000" font-family="Verdana" font-size="14" lengthAdjust="spacing" textLength="84" x="803.55" y="171.4512">&#36136;&#37327;&#25913;&#36827;&#24314;&#35758;</text></g><!--entity ??????--><g id="elem_&#22242;&#38431;&#25216;&#33021;&#20998;&#26512;"><rect fill="#FFFFFF" height="47.0146" rx="2.5" ry="2.5" style="stroke:#000000;stroke-width:1.0;" width="124" x="788.55" y="586.376"/><rect fill="#FFFFFF" height="10" style="stroke:#000000;stroke-width:1.0;" width="15" x="892.55" y="591.376"/><rect fill="#FFFFFF" height="2" style="stroke:#000000;stroke-width:1.0;" width="4" x="890.55" y="593.376"/><rect fill="#FFFFFF" height="2" style="stroke:#000000;stroke-width:1.0;" width="4" x="890.55" y="597.376"/><text fill="#000000" font-family="Verdana" font-size="14" lengthAdjust="spacing" textLength="84" x="803.55" y="620.4512">&#22242;&#38431;&#25216;&#33021;&#20998;&#26512;</text></g><!--entity ??????--><g id="elem_&#36164;&#28304;&#26234;&#33021;&#20998;&#37197;"><rect fill="#FFFFFF" height="47.0146" rx="2.5" ry="2.5" style="stroke:#000000;stroke-width:1.0;" width="124" x="788.55" y="504.376"/><rect fill="#FFFFFF" height="10" style="stroke:#000000;stroke-width:1.0;" width="15" x="892.55" y="509.376"/><rect fill="#FFFFFF" height="2" style="stroke:#000000;stroke-width:1.0;" width="4" x="890.55" y="511.376"/><rect fill="#FFFFFF" height="2" style="stroke:#000000;stroke-width:1.0;" width="4" x="890.55" y="515.376"/><text fill="#000000" font-family="Verdana" font-size="14" lengthAdjust="spacing" textLength="84" x="803.55" y="538.4512">&#36164;&#28304;&#26234;&#33021;&#20998;&#37197;</text></g><!--entity ??????--><g id="elem_&#32489;&#25928;&#26234;&#33021;&#35780;&#20272;"><rect fill="#FFFFFF" height="47.0146" rx="2.5" ry="2.5" style="stroke:#000000;stroke-width:1.0;" width="124" x="788.55" y="422.376"/><rect fill="#FFFFFF" height="10" style="stroke:#000000;stroke-width:1.0;" width="15" x="892.55" y="427.376"/><rect fill="#FFFFFF" height="2" style="stroke:#000000;stroke-width:1.0;" width="4" x="890.55" y="429.376"/><rect fill="#FFFFFF" height="2" style="stroke:#000000;stroke-width:1.0;" width="4" x="890.55" y="433.376"/><text fill="#000000" font-family="Verdana" font-size="14" lengthAdjust="spacing" textLength="84" x="803.55" y="456.4512">&#32489;&#25928;&#26234;&#33021;&#35780;&#20272;</text></g><!--entity ???????--><g id="elem_&#20379;&#24212;&#21830;&#26234;&#33021;&#31579;&#36873;"><rect fill="#FFFFFF" height="47.0146" rx="2.5" ry="2.5" style="stroke:#000000;stroke-width:1.0;" width="138" x="781.55" y="871.376"/><rect fill="#FFFFFF" height="10" style="stroke:#000000;stroke-width:1.0;" width="15" x="899.55" y="876.376"/><rect fill="#FFFFFF" height="2" style="stroke:#000000;stroke-width:1.0;" width="4" x="897.55" y="878.376"/><rect fill="#FFFFFF" height="2" style="stroke:#000000;stroke-width:1.0;" width="4" x="897.55" y="882.376"/><text fill="#000000" font-family="Verdana" font-size="14" lengthAdjust="spacing" textLength="98" x="796.55" y="905.4512">&#20379;&#24212;&#21830;&#26234;&#33021;&#31579;&#36873;</text></g><!--entity ??????--><g id="elem_&#21512;&#21516;&#26234;&#33021;&#23457;&#26597;"><rect fill="#FFFFFF" height="47.0146" rx="2.5" ry="2.5" style="stroke:#000000;stroke-width:1.0;" width="124" x="788.55" y="789.376"/><rect fill="#FFFFFF" height="10" style="stroke:#000000;stroke-width:1.0;" width="15" x="892.55" y="794.376"/><rect fill="#FFFFFF" height="2" style="stroke:#000000;stroke-width:1.0;" width="4" x="890.55" y="796.376"/><rect fill="#FFFFFF" height="2" style="stroke:#000000;stroke-width:1.0;" width="4" x="890.55" y="800.376"/><text fill="#000000" font-family="Verdana" font-size="14" lengthAdjust="spacing" textLength="84" x="803.55" y="823.4512">&#21512;&#21516;&#26234;&#33021;&#23457;&#26597;</text></g><!--entity ??????--><g id="elem_&#37319;&#36141;&#32489;&#25928;&#30417;&#25511;"><rect fill="#FFFFFF" height="47.0146" rx="2.5" ry="2.5" style="stroke:#000000;stroke-width:1.0;" width="124" x="788.55" y="707.376"/><rect fill="#FFFFFF" height="10" style="stroke:#000000;stroke-width:1.0;" width="15" x="892.55" y="712.376"/><rect fill="#FFFFFF" height="2" style="stroke:#000000;stroke-width:1.0;" width="4" x="890.55" y="714.376"/><rect fill="#FFFFFF" height="2" style="stroke:#000000;stroke-width:1.0;" width="4" x="890.55" y="718.376"/><text fill="#000000" font-family="Verdana" font-size="14" lengthAdjust="spacing" textLength="84" x="803.55" y="741.4512">&#37319;&#36141;&#32489;&#25928;&#30417;&#25511;</text></g><!--entity ???????--><g id="elem_&#30456;&#20851;&#26041;&#26234;&#33021;&#35782;&#21035;"><rect fill="#FFFFFF" height="47.0146" rx="2.5" ry="2.5" style="stroke:#000000;stroke-width:1.0;" width="138" x="781.55" y="1156.376"/><rect fill="#FFFFFF" height="10" style="stroke:#000000;stroke-width:1.0;" width="15" x="899.55" y="1161.376"/><rect fill="#FFFFFF" height="2" style="stroke:#000000;stroke-width:1.0;" width="4" x="897.55" y="1163.376"/><rect fill="#FFFFFF" height="2" style="stroke:#000000;stroke-width:1.0;" width="4" x="897.55" y="1167.376"/><text fill="#000000" font-family="Verdana" font-size="14" lengthAdjust="spacing" textLength="98" x="796.55" y="1190.4512">&#30456;&#20851;&#26041;&#26234;&#33021;&#35782;&#21035;</text></g><!--entity ???????--><g id="elem_&#24433;&#21709;&#21147;&#26234;&#33021;&#20998;&#26512;"><rect fill="#FFFFFF" height="47.0146" rx="2.5" ry="2.5" style="stroke:#000000;stroke-width:1.0;" width="138" x="781.55" y="1074.376"/><rect fill="#FFFFFF" height="10" style="stroke:#000000;stroke-width:1.0;" width="15" x="899.55" y="1079.376"/><rect fill="#FFFFFF" height="2" style="stroke:#000000;stroke-width:1.0;" width="4" x="897.55" y="1081.376"/><rect fill="#FFFFFF" height="2" style="stroke:#000000;stroke-width:1.0;" width="4" x="897.55" y="1085.376"/><text fill="#000000" font-family="Verdana" font-size="14" lengthAdjust="spacing" textLength="98" x="796.55" y="1108.4512">&#24433;&#21709;&#21147;&#26234;&#33021;&#20998;&#26512;</text></g><!--entity ??????--><g id="elem_&#27807;&#36890;&#31574;&#30053;&#23450;&#21046;"><rect fill="#FFFFFF" height="47.0146" rx="2.5" ry="2.5" style="stroke:#000000;stroke-width:1.0;" width="124" x="788.55" y="992.376"/><rect fill="#FFFFFF" height="10" style="stroke:#000000;stroke-width:1.0;" width="15" x="892.55" y="997.376"/><rect fill="#FFFFFF" height="2" style="stroke:#000000;stroke-width:1.0;" width="4" x="890.55" y="999.376"/><rect fill="#FFFFFF" height="2" style="stroke:#000000;stroke-width:1.0;" width="4" x="890.55" y="1003.376"/><text fill="#000000" font-family="Verdana" font-size="14" lengthAdjust="spacing" textLength="84" x="803.55" y="1026.4512">&#27807;&#36890;&#31574;&#30053;&#23450;&#21046;</text></g><g id="elem_GMN67"><path d="M62.55,177.876 L62.55,315.4858 L442.55,315.4858 L442.55,187.876 L432.55,177.876 L62.55,177.876 " fill="#FFFFFF" style="stroke:#000000;stroke-width:1.0;"/><path d="M432.55,177.876 L432.55,187.876 L442.55,187.876 L432.55,177.876 " fill="#FFFFFF" style="stroke:#000000;stroke-width:1.0;"/><text fill="#000000" font-family="Verdana" font-size="14" font-weight="bold" lengthAdjust="spacing" textLength="109" x="68.55" y="196.9512">AI&#36171;&#33021;&#26680;&#24515;&#20215;&#20540;:</text><text fill="#000000" font-family="Verdana" font-size="13" lengthAdjust="spacing" textLength="5" x="68.55" y="212.9604">&#160;</text><text fill="#000000" font-family="Verdana" font-size="13" lengthAdjust="spacing" textLength="13" x="68.55" y="228.7598">&#128200;</text><text fill="#000000" font-family="Verdana" font-size="13" font-weight="bold" lengthAdjust="spacing" textLength="57" x="86.55" y="228.7598">&#25928;&#29575;&#25552;&#21319;:</text><text fill="#000000" font-family="Verdana" font-size="13" lengthAdjust="spacing" textLength="279" x="148.55" y="228.7598">&#39033;&#30446;&#35268;&#21010;&#26102;&#38388;&#20943;&#23569;50%&#65292;&#29366;&#24577;&#25253;&#21578;&#29983;&#25104;&#20943;&#23569;80%</text><text fill="#000000" font-family="Verdana" font-size="13" lengthAdjust="spacing" textLength="13" x="68.55" y="244.5591">&#127919;</text><text fill="#000000" font-family="Verdana" font-size="13" font-weight="bold" lengthAdjust="spacing" textLength="57" x="86.55" y="244.5591">&#36136;&#37327;&#20445;&#38556;:</text><text fill="#000000" font-family="Verdana" font-size="13" lengthAdjust="spacing" textLength="266" x="148.55" y="244.5591">&#39033;&#30446;&#25104;&#21151;&#29575;&#25552;&#21319;30%&#65292;&#39044;&#31639;&#25511;&#21046;&#31934;&#24230;&#25552;&#21319;40%</text><text fill="#000000" font-family="Verdana" font-size="13" lengthAdjust="spacing" textLength="13" x="68.55" y="260.3584">&#9889;</text><text fill="#000000" font-family="Verdana" font-size="13" font-weight="bold" lengthAdjust="spacing" textLength="57" x="86.55" y="260.3584">&#26234;&#33021;&#20915;&#31574;:</text><text fill="#000000" font-family="Verdana" font-size="13" lengthAdjust="spacing" textLength="258" x="148.55" y="260.3584">&#39118;&#38505;&#35782;&#21035;&#20934;&#30830;&#29575;&#25552;&#21319;60%&#65292;&#20915;&#31574;&#36895;&#24230;&#25552;&#21319;3&#20493;</text><text fill="#000000" font-family="Verdana" font-size="13" lengthAdjust="spacing" textLength="13" x="68.55" y="276.1577">&#128176;</text><text fill="#000000" font-family="Verdana" font-size="13" font-weight="bold" lengthAdjust="spacing" textLength="57" x="86.55" y="276.1577">&#25104;&#26412;&#20248;&#21270;:</text><text fill="#000000" font-family="Verdana" font-size="13" lengthAdjust="spacing" textLength="227" x="148.55" y="276.1577">&#31649;&#29702;&#25104;&#26412;&#38477;&#20302;30%&#65292;&#36820;&#24037;&#25104;&#26412;&#38477;&#20302;50%</text><text fill="#000000" font-family="Verdana" font-size="13" lengthAdjust="spacing" textLength="5" x="68.55" y="291.957">&#160;</text><text fill="#000000" font-family="Verdana" font-size="13" font-weight="bold" lengthAdjust="spacing" textLength="217" x="68.55" y="307.7563">&#24635;&#20307;ROI&#39044;&#26399;: 400%+ (12&#20010;&#26376;&#20869;)</text></g><!--link ?????? to ??????--><g id="link_&#27807;&#36890;&#35745;&#21010;&#21046;&#23450;_&#20250;&#35758;&#26234;&#33021;&#31649;&#29702;"><path d="M252.55,586.176 C252.55,574.636 252.55,569.096 252.55,557.556 " fill="none" id="&#27807;&#36890;&#35745;&#21010;&#21046;&#23450;-to-&#20250;&#35758;&#26234;&#33021;&#31649;&#29702;" style="stroke:#000000;stroke-width:1.0;"/><polygon fill="#000000" points="252.55,551.556,248.55,560.556,252.55,556.556,256.55,560.556,252.55,551.556" style="stroke:#000000;stroke-width:1.0;"/></g><!--link ?????? to ??????--><g id="link_&#20250;&#35758;&#26234;&#33021;&#31649;&#29702;_&#25253;&#21578;&#26234;&#33021;&#29983;&#25104;"><path d="M252.55,504.176 C252.55,492.636 252.55,487.096 252.55,475.556 " fill="none" id="&#20250;&#35758;&#26234;&#33021;&#31649;&#29702;-to-&#25253;&#21578;&#26234;&#33021;&#29983;&#25104;" style="stroke:#000000;stroke-width:1.0;"/><polygon fill="#000000" points="252.55,469.556,248.55,478.556,252.55,474.556,256.55,478.556,252.55,469.556" style="stroke:#000000;stroke-width:1.0;"/></g><!--link ?????? to ??????--><g id="link_&#39118;&#38505;&#26234;&#33021;&#35782;&#21035;_&#39118;&#38505;&#27010;&#29575;&#39044;&#27979;"><path d="M252.55,871.176 C252.55,859.636 252.55,854.096 252.55,842.556 " fill="none" id="&#39118;&#38505;&#26234;&#33021;&#35782;&#21035;-to-&#39118;&#38505;&#27010;&#29575;&#39044;&#27979;" style="stroke:#000000;stroke-width:1.0;"/><polygon fill="#000000" points="252.55,836.556,248.55,845.556,252.55,841.556,256.55,845.556,252.55,836.556" style="stroke:#000000;stroke-width:1.0;"/></g><!--link ?????? to ??????--><g id="link_&#39118;&#38505;&#27010;&#29575;&#39044;&#27979;_&#24212;&#23545;&#31574;&#30053;&#25512;&#33616;"><path d="M252.55,789.176 C252.55,777.636 252.55,772.096 252.55,760.556 " fill="none" id="&#39118;&#38505;&#27010;&#29575;&#39044;&#27979;-to-&#24212;&#23545;&#31574;&#30053;&#25512;&#33616;" style="stroke:#000000;stroke-width:1.0;"/><polygon fill="#000000" points="252.55,754.556,248.55,763.556,252.55,759.556,256.55,763.556,252.55,754.556" style="stroke:#000000;stroke-width:1.0;"/></g><!--link ????AI?? to ??????--><g id="link_&#39033;&#30446;&#31456;&#31243;AI&#29983;&#25104;_&#35745;&#21010;&#26234;&#33021;&#25972;&#21512;"><path d="M252.55,1156.176 C252.55,1144.636 252.55,1139.096 252.55,1127.556 " fill="none" id="&#39033;&#30446;&#31456;&#31243;AI&#29983;&#25104;-to-&#35745;&#21010;&#26234;&#33021;&#25972;&#21512;" style="stroke:#000000;stroke-width:1.0;"/><polygon fill="#000000" points="252.55,1121.556,248.55,1130.556,252.55,1126.556,256.55,1130.556,252.55,1121.556" style="stroke:#000000;stroke-width:1.0;"/></g><!--link ?????? to ??????--><g id="link_&#35745;&#21010;&#26234;&#33021;&#25972;&#21512;_&#21464;&#26356;&#24433;&#21709;&#20998;&#26512;"><path d="M252.55,1074.176 C252.55,1062.636 252.55,1057.096 252.55,1045.556 " fill="none" id="&#35745;&#21010;&#26234;&#33021;&#25972;&#21512;-to-&#21464;&#26356;&#24433;&#21709;&#20998;&#26512;" style="stroke:#000000;stroke-width:1.0;"/><polygon fill="#000000" points="252.55,1039.556,248.55,1048.556,252.55,1044.556,256.55,1048.556,252.55,1039.556" style="stroke:#000000;stroke-width:1.0;"/></g><!--link ?????? to WBS????--><g id="link_&#38656;&#27714;&#26234;&#33021;&#25910;&#38598;_WBS&#26234;&#33021;&#29983;&#25104;"><path d="M580.05,586.176 C580.05,574.636 580.05,569.096 580.05,557.556 " fill="none" id="&#38656;&#27714;&#26234;&#33021;&#25910;&#38598;-to-WBS&#26234;&#33021;&#29983;&#25104;" style="stroke:#000000;stroke-width:1.0;"/><polygon fill="#000000" points="580.05,551.556,576.05,560.556,580.05,556.556,584.05,560.556,580.05,551.556" style="stroke:#000000;stroke-width:1.0;"/></g><!--link WBS???? to ??????--><g id="link_WBS&#26234;&#33021;&#29983;&#25104;_&#33539;&#22260;&#21464;&#26356;&#30417;&#25511;"><path d="M580.05,504.176 C580.05,492.636 580.05,487.096 580.05,475.556 " fill="none" id="WBS&#26234;&#33021;&#29983;&#25104;-to-&#33539;&#22260;&#21464;&#26356;&#30417;&#25511;" style="stroke:#000000;stroke-width:1.0;"/><polygon fill="#000000" points="580.05,469.556,576.05,478.556,580.05,474.556,584.05,478.556,580.05,469.556" style="stroke:#000000;stroke-width:1.0;"/></g><!--link ?????? to ??????--><g id="link_&#27963;&#21160;&#26234;&#33021;&#25490;&#24207;_&#24037;&#26399;&#26234;&#33021;&#20272;&#31639;"><path d="M580.05,871.176 C580.05,859.636 580.05,854.096 580.05,842.556 " fill="none" id="&#27963;&#21160;&#26234;&#33021;&#25490;&#24207;-to-&#24037;&#26399;&#26234;&#33021;&#20272;&#31639;" style="stroke:#000000;stroke-width:1.0;"/><polygon fill="#000000" points="580.05,836.556,576.05,845.556,580.05,841.556,584.05,845.556,580.05,836.556" style="stroke:#000000;stroke-width:1.0;"/></g><!--link ?????? to ??????--><g id="link_&#24037;&#26399;&#26234;&#33021;&#20272;&#31639;_&#20851;&#38190;&#36335;&#24452;&#20248;&#21270;"><path d="M580.05,789.176 C580.05,777.636 580.05,772.096 580.05,760.556 " fill="none" id="&#24037;&#26399;&#26234;&#33021;&#20272;&#31639;-to-&#20851;&#38190;&#36335;&#24452;&#20248;&#21270;" style="stroke:#000000;stroke-width:1.0;"/><polygon fill="#000000" points="580.05,754.556,576.05,763.556,580.05,759.556,584.05,763.556,580.05,754.556" style="stroke:#000000;stroke-width:1.0;"/></g><!--link ?????? to ??????--><g id="link_&#25104;&#26412;&#26234;&#33021;&#20272;&#31639;_&#39044;&#31639;&#23454;&#26102;&#30417;&#25511;"><path d="M580.05,1156.176 C580.05,1144.636 580.05,1139.096 580.05,1127.556 " fill="none" id="&#25104;&#26412;&#26234;&#33021;&#20272;&#31639;-to-&#39044;&#31639;&#23454;&#26102;&#30417;&#25511;" style="stroke:#000000;stroke-width:1.0;"/><polygon fill="#000000" points="580.05,1121.556,576.05,1130.556,580.05,1126.556,584.05,1130.556,580.05,1121.556" style="stroke:#000000;stroke-width:1.0;"/></g><!--link ?????? to ??????--><g id="link_&#39044;&#31639;&#23454;&#26102;&#30417;&#25511;_&#25104;&#26412;&#20248;&#21270;&#24314;&#35758;"><path d="M580.05,1074.176 C580.05,1062.636 580.05,1057.096 580.05,1045.556 " fill="none" id="&#39044;&#31639;&#23454;&#26102;&#30417;&#25511;-to-&#25104;&#26412;&#20248;&#21270;&#24314;&#35758;" style="stroke:#000000;stroke-width:1.0;"/><polygon fill="#000000" points="580.05,1039.556,576.05,1048.556,580.05,1044.556,584.05,1048.556,580.05,1039.556" style="stroke:#000000;stroke-width:1.0;"/></g><!--link ?????? to ??????--><g id="link_&#36136;&#37327;&#26631;&#20934;&#21046;&#23450;_&#36136;&#37327;&#26234;&#33021;&#26816;&#26597;"><path d="M850.55,301.176 C850.55,289.636 850.55,284.096 850.55,272.556 " fill="none" id="&#36136;&#37327;&#26631;&#20934;&#21046;&#23450;-to-&#36136;&#37327;&#26234;&#33021;&#26816;&#26597;" style="stroke:#000000;stroke-width:1.0;"/><polygon fill="#000000" points="850.55,266.556,846.55,275.556,850.55,271.556,854.55,275.556,850.55,266.556" style="stroke:#000000;stroke-width:1.0;"/></g><!--link ?????? to ??????--><g id="link_&#36136;&#37327;&#26234;&#33021;&#26816;&#26597;_&#36136;&#37327;&#25913;&#36827;&#24314;&#35758;"><path d="M850.55,219.176 C850.55,207.636 850.55,202.096 850.55,190.556 " fill="none" id="&#36136;&#37327;&#26234;&#33021;&#26816;&#26597;-to-&#36136;&#37327;&#25913;&#36827;&#24314;&#35758;" style="stroke:#000000;stroke-width:1.0;"/><polygon fill="#000000" points="850.55,184.556,846.55,193.556,850.55,189.556,854.55,193.556,850.55,184.556" style="stroke:#000000;stroke-width:1.0;"/></g><!--link ?????? to ??????--><g id="link_&#22242;&#38431;&#25216;&#33021;&#20998;&#26512;_&#36164;&#28304;&#26234;&#33021;&#20998;&#37197;"><path d="M850.55,586.176 C850.55,574.636 850.55,569.096 850.55,557.556 " fill="none" id="&#22242;&#38431;&#25216;&#33021;&#20998;&#26512;-to-&#36164;&#28304;&#26234;&#33021;&#20998;&#37197;" style="stroke:#000000;stroke-width:1.0;"/><polygon fill="#000000" points="850.55,551.556,846.55,560.556,850.55,556.556,854.55,560.556,850.55,551.556" style="stroke:#000000;stroke-width:1.0;"/></g><!--link ?????? to ??????--><g id="link_&#36164;&#28304;&#26234;&#33021;&#20998;&#37197;_&#32489;&#25928;&#26234;&#33021;&#35780;&#20272;"><path d="M850.55,504.176 C850.55,492.636 850.55,487.096 850.55,475.556 " fill="none" id="&#36164;&#28304;&#26234;&#33021;&#20998;&#37197;-to-&#32489;&#25928;&#26234;&#33021;&#35780;&#20272;" style="stroke:#000000;stroke-width:1.0;"/><polygon fill="#000000" points="850.55,469.556,846.55,478.556,850.55,474.556,854.55,478.556,850.55,469.556" style="stroke:#000000;stroke-width:1.0;"/></g><!--link ??????? to ??????--><g id="link_&#20379;&#24212;&#21830;&#26234;&#33021;&#31579;&#36873;_&#21512;&#21516;&#26234;&#33021;&#23457;&#26597;"><path d="M850.55,871.176 C850.55,859.636 850.55,854.096 850.55,842.556 " fill="none" id="&#20379;&#24212;&#21830;&#26234;&#33021;&#31579;&#36873;-to-&#21512;&#21516;&#26234;&#33021;&#23457;&#26597;" style="stroke:#000000;stroke-width:1.0;"/><polygon fill="#000000" points="850.55,836.556,846.55,845.556,850.55,841.556,854.55,845.556,850.55,836.556" style="stroke:#000000;stroke-width:1.0;"/></g><!--link ?????? to ??????--><g id="link_&#21512;&#21516;&#26234;&#33021;&#23457;&#26597;_&#37319;&#36141;&#32489;&#25928;&#30417;&#25511;"><path d="M850.55,789.176 C850.55,777.636 850.55,772.096 850.55,760.556 " fill="none" id="&#21512;&#21516;&#26234;&#33021;&#23457;&#26597;-to-&#37319;&#36141;&#32489;&#25928;&#30417;&#25511;" style="stroke:#000000;stroke-width:1.0;"/><polygon fill="#000000" points="850.55,754.556,846.55,763.556,850.55,759.556,854.55,763.556,850.55,754.556" style="stroke:#000000;stroke-width:1.0;"/></g><!--link ??????? to ???????--><g id="link_&#30456;&#20851;&#26041;&#26234;&#33021;&#35782;&#21035;_&#24433;&#21709;&#21147;&#26234;&#33021;&#20998;&#26512;"><path d="M850.55,1156.176 C850.55,1144.636 850.55,1139.096 850.55,1127.556 " fill="none" id="&#30456;&#20851;&#26041;&#26234;&#33021;&#35782;&#21035;-to-&#24433;&#21709;&#21147;&#26234;&#33021;&#20998;&#26512;" style="stroke:#000000;stroke-width:1.0;"/><polygon fill="#000000" points="850.55,1121.556,846.55,1130.556,850.55,1126.556,854.55,1130.556,850.55,1121.556" style="stroke:#000000;stroke-width:1.0;"/></g><!--link ??????? to ??????--><g id="link_&#24433;&#21709;&#21147;&#26234;&#33021;&#20998;&#26512;_&#27807;&#36890;&#31574;&#30053;&#23450;&#21046;"><path d="M850.55,1074.176 C850.55,1062.636 850.55,1057.096 850.55,1045.556 " fill="none" id="&#24433;&#21709;&#21147;&#26234;&#33021;&#20998;&#26512;-to-&#27807;&#36890;&#31574;&#30053;&#23450;&#21046;" style="stroke:#000000;stroke-width:1.0;"/><polygon fill="#000000" points="850.55,1039.556,846.55,1048.556,850.55,1044.556,854.55,1048.556,850.55,1039.556" style="stroke:#000000;stroke-width:1.0;"/></g><!--link HighPriority to MidPriority--><!--link MidPriority to LowPriority--><!--link GMN67 to HighPriority--><g id="link_GMN67_HighPriority"><path d="M128.6,315.926 C90.6,343.916 53.36,379.996 32.55,423.376 C13.83,462.396 11,1164.846 32.55,1202.376 C44.64,1223.4235 63.7781,1237.1797 85.8413,1245.9418 C96.8728,1250.3228 108.6356,1253.4552 120.6143,1255.6263 C123.609,1256.169 126.6171,1256.6517 129.6307,1257.0788 C131.1375,1257.2923 132.6457,1257.4919 134.1542,1257.6782 " fill="none" id="GMN67-HighPriority" style="stroke:#000000;stroke-width:1.0;stroke-dasharray:7.0,7.0;"/></g><rect fill="none" height="99.0732" id="_legend" rx="7.5" ry="7.5" style="stroke:#000000;stroke-width:1.0;" width="339" x="615.55" y="1269.876"/><text fill="#000000" font-family="Verdana" font-size="14" font-weight="bold" lengthAdjust="spacing" textLength="104" x="620.55" y="1288.9512">&#23454;&#26045;&#20248;&#20808;&#32423;&#24314;&#35758;:</text><text fill="#000000" font-family="Verdana" font-size="14" font-weight="bold" lengthAdjust="spacing" textLength="42" x="625.55" y="1307.9658">&#20248;&#20808;&#32423;</text><text fill="#000000" font-family="Verdana" font-size="14" font-weight="bold" lengthAdjust="spacing" textLength="42" x="710.55" y="1307.9658">&#30693;&#35782;&#22495;</text><text fill="#000000" font-family="Verdana" font-size="14" font-weight="bold" lengthAdjust="spacing" textLength="56" x="888.55" y="1307.9658">&#25512;&#33616;&#38454;&#27573;</text><text fill="#000000" font-family="Verdana" font-size="14" lengthAdjust="spacing" textLength="75" x="625.55" y="1324.9805">&#128308; &#39640;&#20248;&#20808;&#32423;</text><text fill="#000000" font-family="Verdana" font-size="14" lengthAdjust="spacing" textLength="140" x="710.55" y="1324.9805">&#27807;&#36890;&#12289;&#39118;&#38505;&#12289;&#25972;&#21512;&#31649;&#29702;</text><text fill="#000000" font-family="Verdana" font-size="14" lengthAdjust="spacing" textLength="55" x="888.55" y="1324.9805">Phase 1</text><text fill="#000000" font-family="Verdana" font-size="14" lengthAdjust="spacing" textLength="75" x="625.55" y="1341.9951">&#128993; &#20013;&#20248;&#20808;&#32423;</text><text fill="#000000" font-family="Verdana" font-size="14" lengthAdjust="spacing" textLength="140" x="710.55" y="1341.9951">&#33539;&#22260;&#12289;&#36827;&#24230;&#12289;&#25104;&#26412;&#31649;&#29702;</text><text fill="#000000" font-family="Verdana" font-size="14" lengthAdjust="spacing" textLength="55" x="888.55" y="1341.9951">Phase 2</text><text fill="#000000" font-family="Verdana" font-size="14" lengthAdjust="spacing" textLength="75" x="625.55" y="1359.0098">&#128994; &#22522;&#30784;&#20248;&#21270;</text><text fill="#000000" font-family="Verdana" font-size="14" lengthAdjust="spacing" textLength="168" x="710.55" y="1359.0098">&#36136;&#37327;&#12289;&#36164;&#28304;&#12289;&#37319;&#36141;&#12289;&#30456;&#20851;&#26041;</text><text fill="#000000" font-family="Verdana" font-size="14" lengthAdjust="spacing" textLength="55" x="888.55" y="1359.0098">Phase 3</text><line style="stroke:#000000;stroke-width:1.0;" x1="620.55" x2="949.55" y1="1293.8906" y2="1293.8906"/><line style="stroke:#000000;stroke-width:1.0;" x1="620.55" x2="949.55" y1="1310.9053" y2="1310.9053"/><line style="stroke:#000000;stroke-width:1.0;" x1="620.55" x2="949.55" y1="1327.9199" y2="1327.9199"/><line style="stroke:#000000;stroke-width:1.0;" x1="620.55" x2="949.55" y1="1344.9346" y2="1344.9346"/><line style="stroke:#000000;stroke-width:1.0;" x1="620.55" x2="949.55" y1="1361.9492" y2="1361.9492"/><line style="stroke:#000000;stroke-width:1.0;" x1="620.55" x2="620.55" y1="1293.8906" y2="1361.9492"/><line style="stroke:#000000;stroke-width:1.0;" x1="705.55" x2="705.55" y1="1293.8906" y2="1361.9492"/><line style="stroke:#000000;stroke-width:1.0;" x1="883.55" x2="883.55" y1="1293.8906" y2="1361.9492"/><line style="stroke:#000000;stroke-width:1.0;" x1="949.55" x2="949.55" y1="1293.8906" y2="1361.9492"/><!--SRC=[ZLVhJnDP5Fy-VyLTZLdCXfMdYmP9i7Qr4IYsa8qnP5FQAJIK3YabnbrDXcTBeQLAUKYxZiL5S962Mg2qFFwNtTwPpYVz4_O-XkbjEwBpWT0vv_pcd7D_vt5_20pompmOyJeyFixBkmCW802_Ps0m05mUF-yCU0GVnuqEUNmZ3hzZ6FGxd4C3Vc7Cvp89Ni4FBhl9msYC80t706yFFF7o02CuV0DUdb7Gtu4_EO2Usr-193B1x-BzsliMyf3tlmg-WDtp1m_g6xXd71Vm111SwoXwSxE-fQsrlwsxyxRrFeoCmxyt5McZk3i39QdTKjoVAqwUAD8xTNM_zLf_M-irRDB6SJy2c5uh7CsgwydYxCT2Dg-kht8_k7YtnyS3IrUF-QwjlSTYxVhTPEsmsh2BV3_FwnfsaxNRhCiQ-MPtCoExPxxJsw6B-HPtCz-YYqrMUqy95TdMwQ87lUqTbfw7kc6Zky7jqgKsiztQQpELFklactWdWzlPsTjbCPMvpTSXYFeIXCL-d_bs2ryITTkifbwRkTFSLVAk7cdSACNLqtxVVC_QSSTiAuN6EzpNSJPlLJz0UV- -a1NXXudFnslgzchXU1LEXvJSflmw2yycrNLyH4Q6dCOeSEcB5Cy0rbGpgb6svs3a4qo_afTFhbu2Zb5m3r6us-yH_9x04t2v0nFQ9FWTNerp9GvU-kLdeAQEb4HQ_YYfufgIJYcn6O9X4eQ7ntmUfmCNWM52AHX-7b7hOZe5GozWw03HgG_KaaAgRGEF2iT8b9PVvZ3zo1VwGCdMI5gobSCRy7bOayObEHJh8wRFoD_AS5hEmr7VHDMNxvXmR9xH8VR86UUfBlq4hfNGDkk09dqxeKI3wlgKl3_7EcyaBTd2N1pk7YaxoyhIXXpTAaOkTBvUFukb38o56ESjlW0_uASdKLsFR2Z4Njb-hMpDjLkqV34EqHEYeTAliC4OIPbW5bRbH0QUV82B4HYQaL_fmJoxYFIvUKhwGdQdahdVeBkK0WP6DQeOatT8EiyIbEwT7bS5sn_oNg_mk9hk3USfBivFmaI6IR7TAOoKjp8shKbH_Z2X9IP-e2RAAFhRRNiPFvcCLecOeo0UqAGgYUToTFCYRZJgZfybOEvjcUE3l6lCMzLgsUhCv65uItC_-WBc5ihEzN13JafKMZZUKz8hR0H6KiPs-fCQJnSFT-7f53we-UMBWcZI2HwAoSdtPSrcDC0E0zPvelir1r3DeJUuzwqSQ5bagzD0ohGMWapTXlaSQaBVHUZiB2Kqb79AIgJctqdeTM1WL2FFZolv7PYUXyjJbD0TmkCAGj_ryxolci_DEYqoMsfmWSdeWp675vkNZr4chzH2VXs4mPdgbgr9AMNUYBAqKTOe3AHLjl4ZpDMol1gHuheUmlwKd8knBPiV5SRypgfXpmG14-lggYI7HUI8rfDOHmWYTHD9rUb8MH06qfAjadydBuNEXm8Yzzv5GTpGvqumMCpiC45q-mNdc1zjcRw0mLh1X58uJU1niJIZDOoTX2hEbjLQB0HZyvg_wLJ5aHX9cJAXRf6OljriwklEmr4IMLJYyl8Hst02ZY5-KF2YrTHW3M8Yqes_DbgrMH9Ew8T03f09obY1AM6wjP01YnYCUFpD4eRPIVX1H1b0oeO5YxRXunmIqaA7hoOKrAQ9qUVZUNZu5arqzIJ6bUrOjOy6FIuNx-jp2Ozzo35c8d7iTAhKOmeT-qkNmKB-48h7ifXNyekW5iZnKvZSOXU_GZQCiihvX02FBYmZG72NRNma0zfre0bV1yvNVnR-9di3q4dmHLeC0MI1QH8DoWin60aIpVCQtPp26yBAWRgIWS45kFUykUuAIeiIFf35SRghqL57fIrrLpJSw2x6fQsXSFQNkfPaSR51MD8_sKX0QVUc9wLyF4LZZqgRDD1_rrB4LygDcK-81XecMSeetr1tKr9f7VawGQRAgYZfc8rGZ6YUljWZgCnmeAYq1EXxzMMaS1AbRXRFudX8Ck-RDGVfGI0iCLyuMRHPBNX3J4etGLDTtPMVG4rzGo7xZvmCmPdfg_WJ7Ezp0Nogz4g6ztdcdX140Q5BwW1M8WLm3b-XILikyPbeFBq5T1d-eTy8yG-wbQgh1t9w7pob-g3gfe7UqKhxJnodoKN_i5igKkWUT8oY6oa3Kh6_eNTqvq6sT8l18Cmce8Cqi23bCnE340vX4DB0iKkakw5_z8wZGpKYA9mmcZVkVm00]--></g></svg>